%TF.GenerationSoftware,KiCad,Pcbnew,7.0.6*%
%TF.CreationDate,2023-09-26T13:20:30-07:00*%
%TF.ProjectId,snes_trigger_membranes,736e6573-5f74-4726-9967-6765725f6d65,rev?*%
%TF.SameCoordinates,Original*%
%TF.FileFunction,Legend,Bot*%
%TF.FilePolarity,Positive*%
%FSLAX46Y46*%
G04 Gerber Fmt 4.6, Leading zero omitted, Abs format (unit mm)*
G04 Created by KiCad (PCBNEW 7.0.6) date 2023-09-26 13:20:30*
%MOMM*%
%LPD*%
G01*
G04 APERTURE LIST*
%ADD10C,0.150000*%
%ADD11C,0.120000*%
G04 APERTURE END LIST*
D10*
X54845947Y-19170142D02*
X55351023Y-19675218D01*
X55351023Y-19675218D02*
X55485710Y-19742562D01*
X55485710Y-19742562D02*
X55620397Y-19742562D01*
X55620397Y-19742562D02*
X55755084Y-19675218D01*
X55755084Y-19675218D02*
X55822428Y-19607875D01*
X54845947Y-20584356D02*
X55250008Y-20180295D01*
X55047977Y-20382325D02*
X54340870Y-19675218D01*
X54340870Y-19675218D02*
X54509229Y-19708890D01*
X54509229Y-19708890D02*
X54643916Y-19708890D01*
X54643916Y-19708890D02*
X54744931Y-19675218D01*
X71253857Y-19692347D02*
X70748781Y-20197423D01*
X70748781Y-20197423D02*
X70681437Y-20332110D01*
X70681437Y-20332110D02*
X70681437Y-20466797D01*
X70681437Y-20466797D02*
X70748781Y-20601484D01*
X70748781Y-20601484D02*
X70816124Y-20668828D01*
X70883468Y-19456644D02*
X70883468Y-19389301D01*
X70883468Y-19389301D02*
X70849796Y-19288286D01*
X70849796Y-19288286D02*
X70681437Y-19119927D01*
X70681437Y-19119927D02*
X70580422Y-19086255D01*
X70580422Y-19086255D02*
X70513078Y-19086255D01*
X70513078Y-19086255D02*
X70412063Y-19119927D01*
X70412063Y-19119927D02*
X70344720Y-19187270D01*
X70344720Y-19187270D02*
X70277376Y-19321957D01*
X70277376Y-19321957D02*
X70277376Y-20130079D01*
X70277376Y-20130079D02*
X69839643Y-19692347D01*
D11*
%TO.C,J1*%
X52474910Y-18840287D02*
X52520872Y-18886249D01*
X52474910Y-18840287D02*
X52861365Y-18453833D01*
X52474910Y-18840287D02*
X54044687Y-17270510D01*
X53012311Y-19377689D02*
X53549713Y-19915090D01*
X53549713Y-19915090D02*
X54334601Y-19130201D01*
X53658233Y-17656965D02*
X54044687Y-17270510D01*
X54044687Y-17270510D02*
X54090649Y-17316472D01*
%TO.C,J2*%
X71583713Y-17321310D02*
X71537751Y-17367272D01*
X71583713Y-17321310D02*
X71970167Y-17707765D01*
X71583713Y-17321310D02*
X73153490Y-18891087D01*
X71046311Y-17858711D02*
X70508910Y-18396113D01*
X70508910Y-18396113D02*
X71293799Y-19181001D01*
X72767035Y-18504633D02*
X73153490Y-18891087D01*
X73153490Y-18891087D02*
X73107528Y-18937049D01*
%TD*%
M02*
