%TF.GenerationSoftware,KiCad,Pcbnew,7.0.6*%
%TF.CreationDate,2023-09-26T13:20:30-07:00*%
%TF.ProjectId,snes_trigger_membranes,736e6573-5f74-4726-9967-6765725f6d65,rev?*%
%TF.SameCoordinates,Original*%
%TF.FileFunction,Copper,L1,Top*%
%TF.FilePolarity,Positive*%
%FSLAX46Y46*%
G04 Gerber Fmt 4.6, Leading zero omitted, Abs format (unit mm)*
G04 Created by KiCad (PCBNEW 7.0.6) date 2023-09-26 13:20:30*
%MOMM*%
%LPD*%
G01*
G04 APERTURE LIST*
G04 Aperture macros list*
%AMRotRect*
0 Rectangle, with rotation*
0 The origin of the aperture is its center*
0 $1 length*
0 $2 width*
0 $3 Rotation angle, in degrees counterclockwise*
0 Add horizontal line*
21,1,$1,$2,0,0,$3*%
%AMFreePoly0*
4,1,186,-2.635803,3.792173,-2.633197,3.792983,-2.248579,3.757578,-2.246162,3.756305,-2.243485,3.756843,-1.864544,3.682087,-1.862270,3.680573,-1.859553,3.680832,-1.490304,3.567520,-1.488198,3.565780,-1.485468,3.565759,-1.129821,3.415091,-1.127905,3.413144,-1.125192,3.412842,-0.786918,3.226413,-0.785212,3.224279,-0.782545,3.223700,-0.465227,3.003487,-0.463749,3.001189,-0.461156,3.000339,
-0.168154,2.748674,-0.166921,2.746238,-0.164428,2.745125,0.101151,2.464673,0.102126,2.462124,0.104493,2.460760,0.339835,2.154496,0.340543,2.151858,0.342757,2.150259,0.545372,1.821424,0.545805,1.818727,0.547843,1.816909,0.715582,1.468989,0.715736,1.466261,0.717575,1.464244,0.848662,1.100926,0.848535,1.098198,0.850158,1.096001,0.943203,0.721130,0.942796,0.718430,
0.944184,0.716079,0.998202,0.333631,0.997519,0.330986,0.998658,0.328505,1.013077,-0.057470,1.012126,-0.060030,1.013004,-0.062616,0.987670,-0.448030,0.986462,-0.450478,0.987069,-0.453141,0.922252,-0.833908,0.920798,-0.836220,0.921128,-0.838931,0.817513,-1.211017,0.815829,-1.213167,0.815879,-1.215897,0.674566,-1.575362,0.672671,-1.577326,0.672440,-1.580049,0.494923,-1.923083,
0.492835,-1.924842,0.492326,-1.927526,0.280488,-2.250496,0.278230,-2.252032,0.277448,-2.254648,0.033533,-2.554132,0.031129,-2.555428,0.030082,-2.557950,-0.243325,-2.830774,-0.245849,-2.831816,-0.247151,-2.834217,-0.547155,-3.077491,-0.549451,-3.078172,-0.550778,-3.080168,-0.711130,-3.187821,-0.722326,-3.190073,-0.732181,-3.195841,-0.740358,-3.193701,-0.748647,-3.195369,-0.758156,-3.189044,
-0.769203,-3.186155,-0.773472,-3.178860,-0.780512,-3.174179,-0.782764,-3.162983,-0.788533,-3.153127,-0.853102,-2.684084,-0.852819,-2.683003,-0.853343,-2.682017,-0.943320,-1.739382,-0.942945,-1.738161,-0.943489,-1.737009,-0.988529,-0.791162,-0.988097,-0.789962,-0.988586,-0.788784,-0.988586,0.158134,-0.988097,0.159312,-0.988529,0.160512,-0.943490,1.106359,-0.942946,1.107511,-0.943321,1.108732,
-0.853344,2.051367,-0.852820,2.052353,-0.853103,2.053434,-0.792431,2.494156,-0.912076,2.588706,-1.216737,2.783825,-1.541141,2.943223,-1.881438,3.065049,-2.233289,3.147752,-2.592235,3.190282,-2.954008,3.192096,-3.083677,3.179854,-3.024578,2.649348,-3.024830,2.648477,-3.024420,2.647670,-2.934211,1.481897,-2.934531,1.480913,-2.934099,1.479973,-2.888863,0.311591,-2.889222,0.310619,
-2.888826,0.309664,-2.888629,-0.859595,-2.889024,-0.860551,-2.888666,-0.861521,-2.933509,-2.029919,-2.933887,-2.030742,-2.933602,-2.031602,-2.975705,-2.614720,-2.981726,-2.626728,-2.984646,-2.639838,-2.990009,-2.643247,-2.992858,-2.648928,-3.005603,-2.653160,-3.016941,-2.660368,-3.149283,-2.683570,-3.152731,-2.682801,-3.155939,-2.684282,-3.424400,-2.694915,-3.428173,-2.693524,-3.432039,-2.694633,
-3.698985,-2.664220,-3.702503,-2.662269,-3.706492,-2.662776,-3.965682,-2.592027,-3.968474,-2.589863,-3.972008,-2.589836,-4.095738,-2.537459,-4.101378,-2.531730,-4.109004,-2.529189,-4.114292,-2.518615,-4.122587,-2.510191,-4.122524,-2.502153,-4.126121,-2.494963,-4.169082,-1.891022,-4.168804,-1.890187,-4.169171,-1.889390,-4.215553,-0.679355,-4.215205,-0.678414,-4.215590,-0.677488,-4.216733,0.533434,
-4.216349,0.534361,-4.216700,0.535302,-4.172602,1.745420,-4.172184,1.746332,-4.172499,1.747285,-4.083223,2.954912,-4.082827,2.955697,-4.083076,2.956541,-4.018717,3.558578,-4.014197,3.566866,-4.013392,3.576270,-4.005399,3.583001,-4.000397,3.592176,-3.991343,3.594840,-3.984122,3.600922,-3.800028,3.659332,-3.797641,3.659127,-3.795677,3.660500,-3.418502,3.743707,-3.415813,3.743230,
-3.413426,3.744556,-3.029695,3.788552,-3.027069,3.787801,-3.024559,3.788874,-2.638339,3.793191,-2.635803,3.792173,-2.635803,3.792173,$1*%
%AMFreePoly1*
4,1,186,0.699559,3.181211,0.707847,3.182879,0.717356,3.176555,0.728403,3.173665,0.732671,3.166371,0.739713,3.161689,0.741965,3.150492,0.747733,3.140638,0.812302,2.671594,0.812019,2.670513,0.812543,2.669526,0.902520,1.726892,0.902145,1.725671,0.902689,1.724519,0.947728,0.778672,0.947296,0.777472,0.947785,0.776294,0.947785,-0.170624,0.947296,-0.171802,0.947728,-0.173002,
0.902689,-1.118849,0.902145,-1.120001,0.902520,-1.121222,0.812543,-2.063856,0.812019,-2.064843,0.812302,-2.065924,0.751631,-2.506644,0.871279,-2.601194,1.175943,-2.796310,1.500347,-2.955705,1.840641,-3.077529,2.192499,-3.160233,2.551437,-3.202765,2.913211,-3.204583,3.042877,-3.192343,2.983778,-2.661838,2.984030,-2.660966,2.983620,-2.660159,2.893411,-1.494387,2.893731,-1.493403,
2.893299,-1.492463,2.848062,-0.324080,2.848420,-0.323109,2.848025,-0.322154,2.847828,0.847105,2.848223,0.848061,2.847865,0.849031,2.892709,2.017428,2.893087,2.018251,2.892802,2.019112,2.934905,2.602230,2.940923,2.614233,2.943842,2.627342,2.949207,2.630754,2.952058,2.636438,2.964801,2.640670,2.976135,2.647877,3.108474,2.671096,3.111925,2.670327,3.115136,2.671809,
3.383600,2.682444,3.387373,2.681053,3.391240,2.682162,3.658186,2.651745,3.661704,2.649794,3.665694,2.650301,3.924884,2.579542,3.927676,2.577378,3.931209,2.577351,4.054939,2.524968,4.060578,2.519239,4.068203,2.516699,4.073491,2.506123,4.081787,2.497698,4.081724,2.489661,4.085320,2.482472,4.128282,1.878531,4.128003,1.877696,4.128371,1.876898,4.174754,0.666864,
4.174405,0.665923,4.174791,0.664996,4.175934,-0.545925,4.175550,-0.546852,4.175901,-0.547793,4.131803,-1.757911,4.131385,-1.758823,4.131700,-1.759776,4.042423,-2.967403,4.042027,-2.968188,4.042276,-2.969032,3.977917,-3.571069,3.973396,-3.579359,3.972591,-3.588761,3.964600,-3.595490,3.959597,-3.604667,3.950541,-3.607332,3.943321,-3.613413,3.759228,-3.671824,3.756840,-3.671619,
3.754877,-3.672991,3.377702,-3.756199,3.375013,-3.755722,3.372626,-3.757048,2.988895,-3.801044,2.986269,-3.800293,2.983759,-3.801366,2.597539,-3.805683,2.595003,-3.804665,2.592396,-3.805475,2.207778,-3.770069,2.205361,-3.768796,2.202683,-3.769334,1.823743,-3.694579,1.821469,-3.693065,1.818752,-3.693324,1.449503,-3.580012,1.447397,-3.578272,1.444667,-3.578251,1.089021,-3.427583,
1.087105,-3.425636,1.084392,-3.425334,0.746117,-3.238905,0.744411,-3.236771,0.741744,-3.236192,0.424426,-3.015979,0.422949,-3.013683,0.420355,-3.012832,0.127354,-2.761166,0.126121,-2.758730,0.123627,-2.757617,-0.141952,-2.477166,-0.142928,-2.474615,-0.145293,-2.473252,-0.380637,-2.166987,-0.381345,-2.164349,-0.383559,-2.162750,-0.586174,-1.833916,-0.586607,-1.831219,-0.588645,-1.829401,
-0.756384,-1.481481,-0.756538,-1.478753,-0.758377,-1.476736,-0.889464,-1.113416,-0.889337,-1.110688,-0.890959,-1.108492,-0.984005,-0.733622,-0.983598,-0.730921,-0.984986,-0.728570,-1.039004,-0.346122,-1.038321,-0.343476,-1.039460,-0.340995,-1.053879,0.044980,-1.052928,0.047540,-1.053806,0.050127,-1.028472,0.435540,-1.027264,0.437988,-1.027871,0.440651,-0.963054,0.821417,-0.961600,0.823729,
-0.961930,0.826440,-0.858315,1.198527,-0.856631,1.200677,-0.856681,1.203407,-0.715368,1.562872,-0.713471,1.564838,-0.713240,1.567559,-0.535724,1.910594,-0.533636,1.912353,-0.533127,1.915037,-0.321289,2.238007,-0.319031,2.239543,-0.318249,2.242159,-0.074334,2.541642,-0.071930,2.542938,-0.070883,2.545460,0.202525,2.818285,0.205049,2.819327,0.206351,2.821728,0.506355,3.065002,
0.508651,3.065683,0.509978,3.067679,0.670331,3.175332,0.681525,3.177584,0.691381,3.183352,0.699559,3.181211,0.699559,3.181211,$1*%
G04 Aperture macros list end*
%TA.AperFunction,SMDPad,CuDef*%
%ADD10FreePoly0,270.000000*%
%TD*%
%TA.AperFunction,SMDPad,CuDef*%
%ADD11FreePoly1,270.000000*%
%TD*%
%TA.AperFunction,ComponentPad*%
%ADD12RotRect,1.000000X1.000000X45.000000*%
%TD*%
%TA.AperFunction,ComponentPad*%
%ADD13RotRect,1.000000X1.000000X315.000000*%
%TD*%
%TA.AperFunction,Conductor*%
%ADD14C,0.250000*%
%TD*%
G04 APERTURE END LIST*
D10*
%TO.P,SW1,1,1*%
%TO.N,Net-(J2-Pin_1)*%
X62738822Y-27438932D03*
D11*
%TO.P,SW1,2,2*%
%TO.N,Net-(J1-Pin_1)*%
X62738822Y-21901732D03*
%TD*%
D12*
%TO.P,J1,1,Pin_1*%
%TO.N,Net-(J1-Pin_1)*%
X53797200Y-18592800D03*
%TD*%
D13*
%TO.P,J2,1,Pin_1*%
%TO.N,Net-(J2-Pin_1)*%
X71831200Y-18643600D03*
%TD*%
D14*
%TO.N,Net-(J1-Pin_1)*%
X62331600Y-19761200D02*
X54965600Y-19761200D01*
X62738822Y-21901732D02*
X62738822Y-20168422D01*
X62738822Y-20168422D02*
X62331600Y-19761200D01*
X54965600Y-19761200D02*
X53797200Y-18592800D01*
%TO.N,Net-(J2-Pin_1)*%
X70154800Y-20320000D02*
X71831200Y-18643600D01*
X62738822Y-27438932D02*
X62738822Y-28550422D01*
X62738822Y-28550422D02*
X63246000Y-29057600D01*
X67157600Y-29057600D02*
X70154800Y-26060400D01*
X70154800Y-26060400D02*
X70154800Y-20320000D01*
X63246000Y-29057600D02*
X67157600Y-29057600D01*
%TD*%
%TA.AperFunction,NonConductor*%
G36*
X71643469Y-16784185D02*
G01*
X71664111Y-16800819D01*
X73591181Y-18727888D01*
X73624666Y-18789211D01*
X73627500Y-18815569D01*
X73627500Y-31739500D01*
X73607815Y-31806539D01*
X73555011Y-31852294D01*
X73503500Y-31863500D01*
X52052963Y-31863500D01*
X51985924Y-31843815D01*
X51940169Y-31791011D01*
X51928963Y-31739500D01*
X51928963Y-18815568D01*
X51948648Y-18748529D01*
X51965277Y-18727892D01*
X52100367Y-18592802D01*
X52834685Y-18592802D01*
X52854125Y-18690539D01*
X52854126Y-18690541D01*
X52878937Y-18727671D01*
X52895516Y-18752483D01*
X52895518Y-18752485D01*
X52895522Y-18752490D01*
X53637510Y-19494478D01*
X53637513Y-19494480D01*
X53637517Y-19494484D01*
X53664408Y-19512452D01*
X53699458Y-19535873D01*
X53699460Y-19535874D01*
X53797198Y-19555315D01*
X53797200Y-19555315D01*
X53797202Y-19555315D01*
X53894939Y-19535874D01*
X53894941Y-19535873D01*
X53907497Y-19527483D01*
X53956883Y-19494484D01*
X53974682Y-19476684D01*
X54036004Y-19443198D01*
X54105696Y-19448181D01*
X54150046Y-19476683D01*
X54663449Y-19990086D01*
X54679577Y-20009945D01*
X54685516Y-20019036D01*
X54713532Y-20040841D01*
X54719293Y-20045930D01*
X54722082Y-20048719D01*
X54741083Y-20062285D01*
X54759331Y-20076488D01*
X54784411Y-20096009D01*
X54791304Y-20099739D01*
X54798396Y-20103206D01*
X54798401Y-20103210D01*
X54835589Y-20114281D01*
X54851003Y-20118870D01*
X54902938Y-20136700D01*
X54910672Y-20137990D01*
X54918510Y-20138967D01*
X54918512Y-20138968D01*
X54918513Y-20138967D01*
X54918514Y-20138968D01*
X54973356Y-20136700D01*
X62124701Y-20136700D01*
X62191740Y-20156385D01*
X62212376Y-20173013D01*
X62327005Y-20287642D01*
X62360488Y-20348961D01*
X62363322Y-20375320D01*
X62363322Y-20501218D01*
X62343637Y-20568257D01*
X62290833Y-20614012D01*
X62256664Y-20623999D01*
X61976983Y-20663502D01*
X61972094Y-20662786D01*
X61962048Y-20665280D01*
X61955784Y-20666496D01*
X61952617Y-20666943D01*
X61941285Y-20670434D01*
X61616162Y-20751133D01*
X61571198Y-20762291D01*
X61566266Y-20762082D01*
X61556524Y-20765597D01*
X61550415Y-20767452D01*
X61547310Y-20768222D01*
X61536415Y-20772851D01*
X61506576Y-20783618D01*
X61433403Y-20810020D01*
X61221303Y-20886547D01*
X61177721Y-20902269D01*
X61172794Y-20902568D01*
X61163460Y-20907068D01*
X61157577Y-20909540D01*
X61154568Y-20910625D01*
X61144202Y-20916353D01*
X61140920Y-20917935D01*
X61139852Y-20918450D01*
X60805074Y-21079853D01*
X60801094Y-21081773D01*
X60800586Y-21082017D01*
X60795766Y-21082806D01*
X60787045Y-21088180D01*
X60781447Y-21091244D01*
X60778561Y-21092635D01*
X60768829Y-21099405D01*
X60444192Y-21299434D01*
X60439427Y-21300735D01*
X60431230Y-21307034D01*
X60425976Y-21310657D01*
X60423243Y-21312340D01*
X60414253Y-21320080D01*
X60114066Y-21550753D01*
X60111882Y-21552431D01*
X60107287Y-21554209D01*
X60099796Y-21561303D01*
X60094945Y-21565445D01*
X60092392Y-21567407D01*
X60084258Y-21576016D01*
X60077271Y-21582635D01*
X59807381Y-21838210D01*
X59802983Y-21840458D01*
X59796242Y-21848306D01*
X59791840Y-21852927D01*
X59789512Y-21855131D01*
X59782295Y-21864543D01*
X59533843Y-22153804D01*
X59529701Y-22156490D01*
X59523809Y-22164982D01*
X59519906Y-22170029D01*
X59517815Y-22172463D01*
X59511603Y-22182570D01*
X59445816Y-22277367D01*
X59310495Y-22472360D01*
X59296770Y-22492137D01*
X59294198Y-22495841D01*
X59290357Y-22498936D01*
X59285371Y-22507985D01*
X59282006Y-22513410D01*
X59280170Y-22516055D01*
X59275036Y-22526737D01*
X59090991Y-22860683D01*
X59087486Y-22864160D01*
X59083452Y-22873683D01*
X59080664Y-22879422D01*
X59079111Y-22882238D01*
X59075101Y-22893397D01*
X58926359Y-23244496D01*
X58923229Y-23248316D01*
X58920195Y-23258204D01*
X58918011Y-23264201D01*
X58916758Y-23267157D01*
X58913916Y-23278663D01*
X58815640Y-23598918D01*
X58815638Y-23598921D01*
X58802051Y-23643197D01*
X58799331Y-23647318D01*
X58797327Y-23657475D01*
X58795771Y-23663664D01*
X58794830Y-23666728D01*
X58793186Y-23678469D01*
X58784221Y-23723909D01*
X58719385Y-24052565D01*
X58717103Y-24056943D01*
X58716155Y-24067243D01*
X58715243Y-24073563D01*
X58714620Y-24076717D01*
X58714193Y-24088557D01*
X58679240Y-24468261D01*
X58677420Y-24472851D01*
X58677536Y-24483186D01*
X58677279Y-24489566D01*
X58676983Y-24492777D01*
X58677775Y-24504602D01*
X58681928Y-24876197D01*
X58682036Y-24885881D01*
X58680698Y-24890633D01*
X58681876Y-24900909D01*
X58682275Y-24907278D01*
X58682311Y-24910490D01*
X58684314Y-24922171D01*
X58727748Y-25301009D01*
X58726905Y-25305873D01*
X58729131Y-25315961D01*
X58730183Y-25322255D01*
X58730550Y-25325457D01*
X58733744Y-25336872D01*
X58810918Y-25686688D01*
X58814633Y-25703531D01*
X58814778Y-25704185D01*
X58814797Y-25704273D01*
X58814439Y-25709484D01*
X58818540Y-25722408D01*
X58819988Y-25727804D01*
X58821268Y-25733607D01*
X58825833Y-25745398D01*
X58829487Y-25756909D01*
X58880977Y-25919190D01*
X58885925Y-25936005D01*
X58885938Y-25936049D01*
X58932192Y-26024320D01*
X58943746Y-26033961D01*
X58947164Y-26037038D01*
X58952810Y-26042511D01*
X58952811Y-26042512D01*
X58952814Y-26042515D01*
X58972843Y-26058529D01*
X58981034Y-26065078D01*
X59008709Y-26088174D01*
X59014826Y-26092334D01*
X59018667Y-26095168D01*
X59030648Y-26104748D01*
X59126373Y-26132459D01*
X59126388Y-26132460D01*
X59126395Y-26132463D01*
X59132358Y-26133570D01*
X59132148Y-26134700D01*
X59191503Y-26157788D01*
X59227142Y-26201399D01*
X59277427Y-26303912D01*
X59335698Y-26422705D01*
X59335908Y-26423132D01*
X59347759Y-26491989D01*
X59329104Y-26542934D01*
X59329346Y-26543061D01*
X59328386Y-26544897D01*
X59327835Y-26546402D01*
X59326750Y-26548034D01*
X59326728Y-26548066D01*
X59326720Y-26548083D01*
X59316058Y-26573987D01*
X59314494Y-26577476D01*
X59302288Y-26602607D01*
X59302287Y-26602608D01*
X59299872Y-26611841D01*
X59297223Y-26619751D01*
X59288797Y-26640226D01*
X59288796Y-26640230D01*
X59288906Y-26689342D01*
X59288796Y-26693170D01*
X59285877Y-26742148D01*
X59293111Y-26763050D01*
X59294353Y-26767600D01*
X59295068Y-26769933D01*
X59296835Y-26774173D01*
X59298192Y-26777735D01*
X59308666Y-26807999D01*
X59315441Y-26827576D01*
X59315626Y-26831465D01*
X59316748Y-26833382D01*
X59316764Y-26833412D01*
X59325282Y-26847967D01*
X59326010Y-26850892D01*
X59331442Y-26858984D01*
X59331466Y-26859024D01*
X59332613Y-26860730D01*
X59334661Y-26863993D01*
X59341513Y-26875700D01*
X59349275Y-26885545D01*
X59349497Y-26885877D01*
X59349498Y-26885877D01*
X59442353Y-27024187D01*
X59442353Y-27024186D01*
X59442396Y-27024250D01*
X59443970Y-27029237D01*
X59452516Y-27039776D01*
X59455836Y-27044270D01*
X59459147Y-27049202D01*
X59467710Y-27058515D01*
X59493881Y-27090790D01*
X59493887Y-27090795D01*
X59567185Y-27181186D01*
X59699076Y-27343834D01*
X59704677Y-27350740D01*
X59706578Y-27355292D01*
X59713869Y-27362598D01*
X59718141Y-27367345D01*
X59720173Y-27369851D01*
X59728999Y-27377762D01*
X59731546Y-27380314D01*
X59732410Y-27381179D01*
X59732410Y-27381180D01*
X59994926Y-27644257D01*
X59994926Y-27644256D01*
X59995838Y-27645169D01*
X59998373Y-27647711D01*
X60000724Y-27652032D01*
X60008716Y-27658541D01*
X60013453Y-27662823D01*
X60015731Y-27665106D01*
X60025307Y-27672054D01*
X60029057Y-27675107D01*
X60029057Y-27675108D01*
X60317226Y-27909808D01*
X60317226Y-27909807D01*
X60320850Y-27912759D01*
X60320995Y-27912878D01*
X60323783Y-27916940D01*
X60332414Y-27922601D01*
X60337567Y-27926375D01*
X60340066Y-27928410D01*
X60350317Y-27934345D01*
X60669164Y-28143478D01*
X60672361Y-28147238D01*
X60681538Y-28151987D01*
X60687053Y-28155211D01*
X60689742Y-28156974D01*
X60700549Y-28161825D01*
X60704837Y-28164043D01*
X60704837Y-28164044D01*
X61034909Y-28334852D01*
X61034909Y-28334851D01*
X61039204Y-28337074D01*
X61042773Y-28340488D01*
X61052389Y-28344268D01*
X61058205Y-28346908D01*
X61061064Y-28348387D01*
X61072316Y-28352102D01*
X61076805Y-28353866D01*
X61076805Y-28353867D01*
X61187262Y-28397290D01*
X61400508Y-28481122D01*
X61427199Y-28491616D01*
X61431090Y-28494637D01*
X61441033Y-28497406D01*
X61447091Y-28499435D01*
X61450094Y-28500615D01*
X61461671Y-28503155D01*
X61497521Y-28513137D01*
X61824346Y-28604149D01*
X61824346Y-28604148D01*
X61829007Y-28605446D01*
X61833199Y-28608057D01*
X61843386Y-28609792D01*
X61849619Y-28611187D01*
X61852718Y-28612049D01*
X61864493Y-28613384D01*
X61869246Y-28614193D01*
X61869246Y-28614194D01*
X62235627Y-28676562D01*
X62235627Y-28676561D01*
X62240391Y-28677372D01*
X62244830Y-28679539D01*
X62255144Y-28680217D01*
X62261489Y-28680964D01*
X62264663Y-28681504D01*
X62276507Y-28681622D01*
X62291122Y-28682582D01*
X62316884Y-28684275D01*
X62382488Y-28708313D01*
X62420152Y-28753544D01*
X62428995Y-28771632D01*
X62433564Y-28778031D01*
X62438404Y-28784249D01*
X62478792Y-28821430D01*
X62943850Y-29286488D01*
X62959975Y-29306344D01*
X62965913Y-29315432D01*
X62965916Y-29315436D01*
X62993925Y-29337236D01*
X62999687Y-29342325D01*
X63002482Y-29345120D01*
X63021495Y-29358694D01*
X63064811Y-29392409D01*
X63064818Y-29392411D01*
X63071720Y-29396147D01*
X63078796Y-29399606D01*
X63078801Y-29399610D01*
X63131402Y-29415270D01*
X63131403Y-29415270D01*
X63183338Y-29433100D01*
X63191072Y-29434390D01*
X63198910Y-29435367D01*
X63198912Y-29435368D01*
X63198913Y-29435367D01*
X63198914Y-29435368D01*
X63253756Y-29433100D01*
X67105796Y-29433100D01*
X67131241Y-29435739D01*
X67135040Y-29436535D01*
X67141868Y-29437967D01*
X67162825Y-29435354D01*
X67177092Y-29433577D01*
X67184768Y-29433100D01*
X67188712Y-29433100D01*
X67188714Y-29433100D01*
X67188716Y-29433099D01*
X67188722Y-29433099D01*
X67204087Y-29430534D01*
X67211740Y-29429257D01*
X67266226Y-29422466D01*
X67266227Y-29422465D01*
X67266229Y-29422465D01*
X67273741Y-29420228D01*
X67281206Y-29417666D01*
X67281206Y-29417665D01*
X67281210Y-29417665D01*
X67329477Y-29391544D01*
X67378811Y-29367426D01*
X67378813Y-29367423D01*
X67385194Y-29362868D01*
X67391419Y-29358022D01*
X67391426Y-29358019D01*
X67428608Y-29317628D01*
X70383692Y-26362544D01*
X70403541Y-26346425D01*
X70412636Y-26340484D01*
X70434444Y-26312462D01*
X70439521Y-26306716D01*
X70442320Y-26303918D01*
X70455894Y-26284904D01*
X70489609Y-26241589D01*
X70489609Y-26241587D01*
X70493347Y-26234680D01*
X70496803Y-26227607D01*
X70496810Y-26227599D01*
X70512470Y-26174996D01*
X70530300Y-26123060D01*
X70530300Y-26123055D01*
X70531590Y-26115324D01*
X70532568Y-26107485D01*
X70530300Y-26052644D01*
X70530300Y-20526899D01*
X70549985Y-20459860D01*
X70566619Y-20439218D01*
X71015751Y-19990086D01*
X71478355Y-19527481D01*
X71539676Y-19493998D01*
X71609367Y-19498982D01*
X71653715Y-19527483D01*
X71671510Y-19545278D01*
X71671513Y-19545280D01*
X71671517Y-19545284D01*
X71708647Y-19570094D01*
X71733458Y-19586673D01*
X71733460Y-19586674D01*
X71831198Y-19606115D01*
X71831200Y-19606115D01*
X71831202Y-19606115D01*
X71928939Y-19586674D01*
X71928941Y-19586673D01*
X71990883Y-19545284D01*
X72732884Y-18803283D01*
X72774273Y-18741341D01*
X72774274Y-18741339D01*
X72793715Y-18643602D01*
X72793715Y-18643597D01*
X72774274Y-18545860D01*
X72774273Y-18545858D01*
X72757694Y-18521047D01*
X72732884Y-18483917D01*
X72732880Y-18483913D01*
X72732877Y-18483909D01*
X71990890Y-17741922D01*
X71990886Y-17741919D01*
X71990883Y-17741916D01*
X71966071Y-17725337D01*
X71928941Y-17700526D01*
X71928939Y-17700525D01*
X71831202Y-17681085D01*
X71831198Y-17681085D01*
X71733460Y-17700525D01*
X71733458Y-17700526D01*
X71671517Y-17741916D01*
X71671509Y-17741922D01*
X70929522Y-18483909D01*
X70929516Y-18483917D01*
X70888126Y-18545858D01*
X70888125Y-18545860D01*
X70868685Y-18643597D01*
X70868685Y-18643602D01*
X70888125Y-18741339D01*
X70888126Y-18741341D01*
X70907464Y-18770281D01*
X70929516Y-18803283D01*
X70929519Y-18803286D01*
X70929522Y-18803290D01*
X70947315Y-18821083D01*
X70980800Y-18882406D01*
X70975816Y-18952098D01*
X70947315Y-18996445D01*
X69925908Y-20017852D01*
X69906054Y-20033976D01*
X69896965Y-20039914D01*
X69896964Y-20039915D01*
X69875163Y-20067923D01*
X69870086Y-20073674D01*
X69867284Y-20076477D01*
X69867274Y-20076488D01*
X69853705Y-20095495D01*
X69819992Y-20138808D01*
X69816247Y-20145729D01*
X69812788Y-20152804D01*
X69797129Y-20205403D01*
X69779300Y-20257338D01*
X69778006Y-20265092D01*
X69777031Y-20272911D01*
X69779300Y-20327755D01*
X69779300Y-25853500D01*
X69759615Y-25920539D01*
X69742981Y-25941181D01*
X67038381Y-28645781D01*
X66977058Y-28679266D01*
X66950700Y-28682100D01*
X64207929Y-28682100D01*
X64140890Y-28662415D01*
X64095135Y-28609611D01*
X64085191Y-28540453D01*
X64114216Y-28476897D01*
X64165844Y-28441460D01*
X64177797Y-28437147D01*
X64282887Y-28399230D01*
X64282886Y-28399229D01*
X64287431Y-28397590D01*
X64292363Y-28397290D01*
X64301676Y-28392800D01*
X64307567Y-28390325D01*
X64310603Y-28389229D01*
X64320963Y-28383502D01*
X64325302Y-28381409D01*
X64325303Y-28381410D01*
X64660078Y-28220009D01*
X64660077Y-28220008D01*
X64664428Y-28217911D01*
X64669300Y-28217106D01*
X64678098Y-28211685D01*
X64683704Y-28208617D01*
X64686604Y-28207218D01*
X64696327Y-28200453D01*
X64700437Y-28197920D01*
X64700438Y-28197921D01*
X65016849Y-28002961D01*
X65016848Y-28002959D01*
X65020956Y-28000429D01*
X65025723Y-27999126D01*
X65033920Y-27992828D01*
X65039181Y-27989199D01*
X65041920Y-27987511D01*
X65050828Y-27979836D01*
X65051553Y-27979277D01*
X65054722Y-27976841D01*
X65054724Y-27976843D01*
X65349418Y-27750391D01*
X65349417Y-27750390D01*
X65351068Y-27749123D01*
X65353231Y-27747461D01*
X65357843Y-27745673D01*
X65365364Y-27738551D01*
X65370224Y-27734402D01*
X65372778Y-27732438D01*
X65380906Y-27723834D01*
X65384409Y-27720516D01*
X65384410Y-27720517D01*
X65654265Y-27464972D01*
X65654264Y-27464971D01*
X65657769Y-27461653D01*
X65662170Y-27459403D01*
X65668910Y-27451556D01*
X65673316Y-27446931D01*
X65675644Y-27444725D01*
X65682851Y-27435324D01*
X65685999Y-27431658D01*
X65686000Y-27431659D01*
X65901139Y-27181183D01*
X65901147Y-27181178D01*
X65931300Y-27146069D01*
X65935442Y-27143380D01*
X65941337Y-27134887D01*
X65945246Y-27129830D01*
X65947344Y-27127386D01*
X65953550Y-27117291D01*
X65979928Y-27079284D01*
X65979935Y-27079270D01*
X66168193Y-26807999D01*
X66168192Y-26807998D01*
X66170948Y-26804028D01*
X66174792Y-26800928D01*
X66179779Y-26791880D01*
X66183147Y-26786450D01*
X66184979Y-26783809D01*
X66190114Y-26773127D01*
X66192444Y-26768900D01*
X66298892Y-26575750D01*
X66367270Y-26451679D01*
X66374156Y-26439183D01*
X66377664Y-26435701D01*
X66381701Y-26426173D01*
X66384493Y-26420424D01*
X66386043Y-26417610D01*
X66390046Y-26406474D01*
X66391931Y-26402024D01*
X66391932Y-26402025D01*
X66536908Y-26059814D01*
X66536907Y-26059813D01*
X66538788Y-26055375D01*
X66541921Y-26051550D01*
X66544958Y-26041653D01*
X66547144Y-26035651D01*
X66548392Y-26032704D01*
X66551233Y-26021206D01*
X66552652Y-26016583D01*
X66649510Y-25700949D01*
X66649512Y-25700946D01*
X66663096Y-25656678D01*
X66665817Y-25652554D01*
X66667820Y-25642400D01*
X66669378Y-25636204D01*
X66670320Y-25633133D01*
X66671964Y-25621401D01*
X66680922Y-25575990D01*
X66680927Y-25575964D01*
X66727165Y-25341583D01*
X66744830Y-25252039D01*
X66744829Y-25252038D01*
X66745763Y-25247306D01*
X66748048Y-25242920D01*
X66748997Y-25232614D01*
X66749909Y-25226292D01*
X66750527Y-25223155D01*
X66750958Y-25211313D01*
X66751401Y-25206500D01*
X66785469Y-24836413D01*
X66785468Y-24836412D01*
X66785910Y-24831615D01*
X66787731Y-24827020D01*
X66787615Y-24816677D01*
X66787872Y-24810292D01*
X66788167Y-24807086D01*
X66787376Y-24795255D01*
X66787304Y-24788748D01*
X66783169Y-24418815D01*
X66783115Y-24413993D01*
X66784454Y-24409235D01*
X66783275Y-24398950D01*
X66782875Y-24392577D01*
X66782839Y-24389378D01*
X66780839Y-24377704D01*
X66780288Y-24372897D01*
X66737955Y-24003662D01*
X66737405Y-23998869D01*
X66738247Y-23994002D01*
X66736020Y-23983905D01*
X66734966Y-23977602D01*
X66734600Y-23974415D01*
X66731410Y-23963002D01*
X66667645Y-23673964D01*
X66650375Y-23595680D01*
X66650359Y-23595606D01*
X66650716Y-23590390D01*
X66646610Y-23577449D01*
X66645161Y-23572049D01*
X66643887Y-23566273D01*
X66639323Y-23554479D01*
X66639118Y-23553835D01*
X66584171Y-23380659D01*
X66579228Y-23363858D01*
X66579221Y-23363836D01*
X66532974Y-23275561D01*
X66531767Y-23274554D01*
X66522712Y-23266996D01*
X66516162Y-23260685D01*
X66516028Y-23260828D01*
X66512340Y-23257349D01*
X66484134Y-23234796D01*
X66456465Y-23211702D01*
X66450302Y-23207509D01*
X66446457Y-23204671D01*
X66444830Y-23203370D01*
X66434507Y-23195116D01*
X66434505Y-23195115D01*
X66351361Y-23171046D01*
X66292439Y-23133496D01*
X66274514Y-23106546D01*
X66169959Y-22893397D01*
X66145720Y-22843983D01*
X66133871Y-22775130D01*
X66142381Y-22742186D01*
X66149091Y-22725882D01*
X66150658Y-22722387D01*
X66162865Y-22697260D01*
X66165284Y-22688010D01*
X66167927Y-22680117D01*
X66176358Y-22659634D01*
X66176246Y-22610513D01*
X66176355Y-22606716D01*
X66179276Y-22557717D01*
X66172047Y-22536828D01*
X66170889Y-22532565D01*
X66170086Y-22529934D01*
X66168323Y-22525704D01*
X66166957Y-22522120D01*
X66163248Y-22511403D01*
X66149738Y-22472360D01*
X66149551Y-22468437D01*
X66139885Y-22451921D01*
X66139155Y-22448989D01*
X66133345Y-22440335D01*
X66133304Y-22440266D01*
X66132554Y-22439152D01*
X66130482Y-22435854D01*
X66128883Y-22433122D01*
X66127593Y-22430916D01*
X66123978Y-22424739D01*
X66123966Y-22424720D01*
X66123657Y-22424193D01*
X66115890Y-22414334D01*
X66022762Y-22275617D01*
X66021187Y-22270627D01*
X66012633Y-22260078D01*
X66009314Y-22255584D01*
X66006023Y-22250683D01*
X65997458Y-22241365D01*
X65760489Y-21949136D01*
X65758584Y-21944577D01*
X65751278Y-21937256D01*
X65747006Y-21932509D01*
X65744989Y-21930022D01*
X65736166Y-21922111D01*
X65655903Y-21841677D01*
X65470228Y-21655606D01*
X65470227Y-21655606D01*
X65469567Y-21654945D01*
X65466817Y-21652189D01*
X65464455Y-21647852D01*
X65456438Y-21641323D01*
X65451702Y-21637041D01*
X65449438Y-21634773D01*
X65439861Y-21627819D01*
X65430294Y-21620029D01*
X65380345Y-21579348D01*
X65147930Y-21390056D01*
X65146453Y-21388853D01*
X65144185Y-21387006D01*
X65141389Y-21382934D01*
X65132739Y-21377261D01*
X65127585Y-21373487D01*
X65125103Y-21371465D01*
X65114851Y-21365527D01*
X65113057Y-21364351D01*
X64796010Y-21156397D01*
X64792810Y-21152633D01*
X64783620Y-21147878D01*
X64778110Y-21144656D01*
X64775434Y-21142901D01*
X64764633Y-21138051D01*
X64752278Y-21131659D01*
X64668259Y-21088180D01*
X64430242Y-20965009D01*
X64430241Y-20965009D01*
X64425965Y-20962796D01*
X64422392Y-20959379D01*
X64412759Y-20955592D01*
X64406945Y-20952953D01*
X64404103Y-20951482D01*
X64392842Y-20947763D01*
X64388347Y-20945996D01*
X64388348Y-20945996D01*
X64042463Y-20810020D01*
X64039960Y-20809036D01*
X64037969Y-20808253D01*
X64034068Y-20805224D01*
X64024105Y-20802450D01*
X64018050Y-20800423D01*
X64015073Y-20799252D01*
X64003499Y-20796712D01*
X63998372Y-20795284D01*
X63636156Y-20694417D01*
X63631963Y-20691805D01*
X63621767Y-20690069D01*
X63615537Y-20688676D01*
X63612452Y-20687816D01*
X63600675Y-20686479D01*
X63224775Y-20622491D01*
X63196018Y-20608450D01*
X63164575Y-20596925D01*
X63156396Y-20586127D01*
X63152333Y-20581982D01*
X63149977Y-20579294D01*
X63150723Y-20578639D01*
X63122387Y-20541230D01*
X63114321Y-20497238D01*
X63114321Y-20439218D01*
X63114321Y-20220216D01*
X63116960Y-20194782D01*
X63119189Y-20184154D01*
X63115728Y-20156385D01*
X63114799Y-20148928D01*
X63114322Y-20141252D01*
X63114322Y-20137311D01*
X63114320Y-20137298D01*
X63114220Y-20136700D01*
X63110479Y-20114281D01*
X63103688Y-20059796D01*
X63103686Y-20059792D01*
X63101444Y-20052262D01*
X63098887Y-20044814D01*
X63098887Y-20044812D01*
X63072766Y-19996544D01*
X63048648Y-19947211D01*
X63048646Y-19947209D01*
X63048646Y-19947208D01*
X63044074Y-19940805D01*
X63039244Y-19934599D01*
X62998852Y-19897414D01*
X62633749Y-19532311D01*
X62617622Y-19512452D01*
X62611686Y-19503367D01*
X62611683Y-19503363D01*
X62583674Y-19481563D01*
X62577910Y-19476472D01*
X62575115Y-19473677D01*
X62556105Y-19460106D01*
X62512789Y-19426390D01*
X62505874Y-19422648D01*
X62498800Y-19419190D01*
X62446196Y-19403529D01*
X62394258Y-19385699D01*
X62386523Y-19384408D01*
X62378685Y-19383431D01*
X62323844Y-19385700D01*
X55172499Y-19385700D01*
X55105460Y-19366015D01*
X55084818Y-19349381D01*
X54681083Y-18945645D01*
X54647598Y-18884322D01*
X54652582Y-18814630D01*
X54681083Y-18770283D01*
X54698884Y-18752483D01*
X54740273Y-18690541D01*
X54740274Y-18690539D01*
X54759715Y-18592802D01*
X54759715Y-18592797D01*
X54740274Y-18495060D01*
X54740273Y-18495058D01*
X54723694Y-18470247D01*
X54698884Y-18433117D01*
X54698880Y-18433113D01*
X54698878Y-18433110D01*
X53956890Y-17691122D01*
X53956886Y-17691119D01*
X53956883Y-17691116D01*
X53932071Y-17674537D01*
X53894941Y-17649726D01*
X53894939Y-17649725D01*
X53797202Y-17630285D01*
X53797198Y-17630285D01*
X53699460Y-17649725D01*
X53699458Y-17649726D01*
X53637517Y-17691116D01*
X53637509Y-17691122D01*
X52895522Y-18433109D01*
X52895516Y-18433117D01*
X52854126Y-18495058D01*
X52854125Y-18495060D01*
X52834685Y-18592797D01*
X52834685Y-18592802D01*
X52100367Y-18592802D01*
X53892351Y-16800819D01*
X53953674Y-16767334D01*
X53980032Y-16764500D01*
X71576430Y-16764500D01*
X71643469Y-16784185D01*
G37*
%TD.AperFunction*%
M02*
