%TF.GenerationSoftware,KiCad,Pcbnew,7.0.6*%
%TF.CreationDate,2023-09-26T13:20:30-07:00*%
%TF.ProjectId,snes_trigger_membranes,736e6573-5f74-4726-9967-6765725f6d65,rev?*%
%TF.SameCoordinates,Original*%
%TF.FileFunction,Legend,Top*%
%TF.FilePolarity,Positive*%
%FSLAX46Y46*%
G04 Gerber Fmt 4.6, Leading zero omitted, Abs format (unit mm)*
G04 Created by KiCad (PCBNEW 7.0.6) date 2023-09-26 13:20:30*
%MOMM*%
%LPD*%
G01*
G04 APERTURE LIST*
%ADD10C,0.100000*%
G04 APERTURE END LIST*
D10*
X61405489Y-30337932D02*
X61548346Y-30385551D01*
X61548346Y-30385551D02*
X61786441Y-30385551D01*
X61786441Y-30385551D02*
X61881679Y-30337932D01*
X61881679Y-30337932D02*
X61929298Y-30290312D01*
X61929298Y-30290312D02*
X61976917Y-30195074D01*
X61976917Y-30195074D02*
X61976917Y-30099836D01*
X61976917Y-30099836D02*
X61929298Y-30004598D01*
X61929298Y-30004598D02*
X61881679Y-29956979D01*
X61881679Y-29956979D02*
X61786441Y-29909360D01*
X61786441Y-29909360D02*
X61595965Y-29861741D01*
X61595965Y-29861741D02*
X61500727Y-29814122D01*
X61500727Y-29814122D02*
X61453108Y-29766503D01*
X61453108Y-29766503D02*
X61405489Y-29671265D01*
X61405489Y-29671265D02*
X61405489Y-29576027D01*
X61405489Y-29576027D02*
X61453108Y-29480789D01*
X61453108Y-29480789D02*
X61500727Y-29433170D01*
X61500727Y-29433170D02*
X61595965Y-29385551D01*
X61595965Y-29385551D02*
X61834060Y-29385551D01*
X61834060Y-29385551D02*
X61976917Y-29433170D01*
X62310251Y-29385551D02*
X62548346Y-30385551D01*
X62548346Y-30385551D02*
X62738822Y-29671265D01*
X62738822Y-29671265D02*
X62929298Y-30385551D01*
X62929298Y-30385551D02*
X63167394Y-29385551D01*
X64072155Y-30385551D02*
X63500727Y-30385551D01*
X63786441Y-30385551D02*
X63786441Y-29385551D01*
X63786441Y-29385551D02*
X63691203Y-29528408D01*
X63691203Y-29528408D02*
X63595965Y-29623646D01*
X63595965Y-29623646D02*
X63500727Y-29671265D01*
M02*
