%TF.GenerationSoftware,KiCad,Pcbnew,7.0.6*%
%TF.CreationDate,2023-09-26T13:21:33-07:00*%
%TF.ProjectId,snes_trigger_tactile,736e6573-5f74-4726-9967-6765725f7461,rev?*%
%TF.SameCoordinates,Original*%
%TF.FileFunction,Legend,Top*%
%TF.FilePolarity,Positive*%
%FSLAX46Y46*%
G04 Gerber Fmt 4.6, Leading zero omitted, Abs format (unit mm)*
G04 Created by KiCad (PCBNEW 7.0.6) date 2023-09-26 13:21:33*
%MOMM*%
%LPD*%
G01*
G04 APERTURE LIST*
%ADD10C,0.150000*%
%ADD11C,0.120000*%
G04 APERTURE END LIST*
D10*
X59096022Y-25978264D02*
X59143641Y-25835407D01*
X59143641Y-25835407D02*
X59143641Y-25597312D01*
X59143641Y-25597312D02*
X59096022Y-25502074D01*
X59096022Y-25502074D02*
X59048402Y-25454455D01*
X59048402Y-25454455D02*
X58953164Y-25406836D01*
X58953164Y-25406836D02*
X58857926Y-25406836D01*
X58857926Y-25406836D02*
X58762688Y-25454455D01*
X58762688Y-25454455D02*
X58715069Y-25502074D01*
X58715069Y-25502074D02*
X58667450Y-25597312D01*
X58667450Y-25597312D02*
X58619831Y-25787788D01*
X58619831Y-25787788D02*
X58572212Y-25883026D01*
X58572212Y-25883026D02*
X58524593Y-25930645D01*
X58524593Y-25930645D02*
X58429355Y-25978264D01*
X58429355Y-25978264D02*
X58334117Y-25978264D01*
X58334117Y-25978264D02*
X58238879Y-25930645D01*
X58238879Y-25930645D02*
X58191260Y-25883026D01*
X58191260Y-25883026D02*
X58143641Y-25787788D01*
X58143641Y-25787788D02*
X58143641Y-25549693D01*
X58143641Y-25549693D02*
X58191260Y-25406836D01*
X58143641Y-25073502D02*
X59143641Y-24835407D01*
X59143641Y-24835407D02*
X58429355Y-24644931D01*
X58429355Y-24644931D02*
X59143641Y-24454455D01*
X59143641Y-24454455D02*
X58143641Y-24216360D01*
X59143641Y-23311598D02*
X59143641Y-23883026D01*
X59143641Y-23597312D02*
X58143641Y-23597312D01*
X58143641Y-23597312D02*
X58286498Y-23692550D01*
X58286498Y-23692550D02*
X58381736Y-23787788D01*
X58381736Y-23787788D02*
X58429355Y-23883026D01*
D11*
%TO.C,SW1*%
X59508822Y-27874932D02*
X59508822Y-21414932D01*
X59538822Y-27874932D02*
X59508822Y-27874932D01*
X61438822Y-27874932D02*
X64038822Y-27874932D01*
X65968822Y-27874932D02*
X65938822Y-27874932D01*
X65968822Y-27874932D02*
X65968822Y-21414932D01*
X59508822Y-21414932D02*
X59538822Y-21414932D01*
X61438822Y-21414932D02*
X64038822Y-21414932D01*
X65968822Y-21414932D02*
X65938822Y-21414932D01*
%TD*%
M02*
