%TF.GenerationSoftware,KiCad,Pcbnew,7.0.6*%
%TF.CreationDate,2023-09-26T13:21:35-07:00*%
%TF.ProjectId,snes_trigger_tactile,736e6573-5f74-4726-9967-6765725f7461,rev?*%
%TF.SameCoordinates,Original*%
%TF.FileFunction,Drillmap*%
%TF.FilePolarity,Positive*%
%FSLAX45Y45*%
G04 Gerber Fmt 4.5, Leading zero omitted, Abs format (unit mm)*
G04 Created by KiCad (PCBNEW 7.0.6) date 2023-09-26 13:21:35*
%MOMM*%
%LPD*%
G01*
G04 APERTURE LIST*
%ADD10C,0.100000*%
%ADD11C,0.200000*%
G04 APERTURE END LIST*
D10*
X5192846Y-3186400D02*
X7362800Y-3186400D01*
X7362800Y-1876400D02*
X7162800Y-1676400D01*
X5392846Y-1676400D02*
X5192846Y-1876400D01*
X7162800Y-1676400D02*
X5392846Y-1676400D01*
X7362800Y-3186400D02*
X7362800Y-1876400D01*
X5192846Y-1876400D02*
X5192846Y-3186400D01*
D11*
X5448623Y-3502884D02*
X5448623Y-3302884D01*
X5448623Y-3302884D02*
X5496242Y-3302884D01*
X5496242Y-3302884D02*
X5524814Y-3312408D01*
X5524814Y-3312408D02*
X5543861Y-3331455D01*
X5543861Y-3331455D02*
X5553385Y-3350503D01*
X5553385Y-3350503D02*
X5562909Y-3388598D01*
X5562909Y-3388598D02*
X5562909Y-3417169D01*
X5562909Y-3417169D02*
X5553385Y-3455265D01*
X5553385Y-3455265D02*
X5543861Y-3474312D01*
X5543861Y-3474312D02*
X5524814Y-3493360D01*
X5524814Y-3493360D02*
X5496242Y-3502884D01*
X5496242Y-3502884D02*
X5448623Y-3502884D01*
X5648623Y-3502884D02*
X5648623Y-3369550D01*
X5648623Y-3407646D02*
X5658147Y-3388598D01*
X5658147Y-3388598D02*
X5667671Y-3379074D01*
X5667671Y-3379074D02*
X5686718Y-3369550D01*
X5686718Y-3369550D02*
X5705766Y-3369550D01*
X5772433Y-3502884D02*
X5772433Y-3369550D01*
X5772433Y-3302884D02*
X5762909Y-3312408D01*
X5762909Y-3312408D02*
X5772433Y-3321931D01*
X5772433Y-3321931D02*
X5781956Y-3312408D01*
X5781956Y-3312408D02*
X5772433Y-3302884D01*
X5772433Y-3302884D02*
X5772433Y-3321931D01*
X5896242Y-3502884D02*
X5877194Y-3493360D01*
X5877194Y-3493360D02*
X5867671Y-3474312D01*
X5867671Y-3474312D02*
X5867671Y-3302884D01*
X6001004Y-3502884D02*
X5981956Y-3493360D01*
X5981956Y-3493360D02*
X5972433Y-3474312D01*
X5972433Y-3474312D02*
X5972433Y-3302884D01*
X6229575Y-3502884D02*
X6229575Y-3302884D01*
X6229575Y-3302884D02*
X6296242Y-3445741D01*
X6296242Y-3445741D02*
X6362909Y-3302884D01*
X6362909Y-3302884D02*
X6362909Y-3502884D01*
X6543861Y-3502884D02*
X6543861Y-3398122D01*
X6543861Y-3398122D02*
X6534337Y-3379074D01*
X6534337Y-3379074D02*
X6515290Y-3369550D01*
X6515290Y-3369550D02*
X6477194Y-3369550D01*
X6477194Y-3369550D02*
X6458147Y-3379074D01*
X6543861Y-3493360D02*
X6524814Y-3502884D01*
X6524814Y-3502884D02*
X6477194Y-3502884D01*
X6477194Y-3502884D02*
X6458147Y-3493360D01*
X6458147Y-3493360D02*
X6448623Y-3474312D01*
X6448623Y-3474312D02*
X6448623Y-3455265D01*
X6448623Y-3455265D02*
X6458147Y-3436217D01*
X6458147Y-3436217D02*
X6477194Y-3426693D01*
X6477194Y-3426693D02*
X6524814Y-3426693D01*
X6524814Y-3426693D02*
X6543861Y-3417169D01*
X6639099Y-3369550D02*
X6639099Y-3569550D01*
X6639099Y-3379074D02*
X6658147Y-3369550D01*
X6658147Y-3369550D02*
X6696242Y-3369550D01*
X6696242Y-3369550D02*
X6715290Y-3379074D01*
X6715290Y-3379074D02*
X6724814Y-3388598D01*
X6724814Y-3388598D02*
X6734337Y-3407646D01*
X6734337Y-3407646D02*
X6734337Y-3464788D01*
X6734337Y-3464788D02*
X6724814Y-3483836D01*
X6724814Y-3483836D02*
X6715290Y-3493360D01*
X6715290Y-3493360D02*
X6696242Y-3502884D01*
X6696242Y-3502884D02*
X6658147Y-3502884D01*
X6658147Y-3502884D02*
X6639099Y-3493360D01*
X6820052Y-3483836D02*
X6829575Y-3493360D01*
X6829575Y-3493360D02*
X6820052Y-3502884D01*
X6820052Y-3502884D02*
X6810528Y-3493360D01*
X6810528Y-3493360D02*
X6820052Y-3483836D01*
X6820052Y-3483836D02*
X6820052Y-3502884D01*
X6820052Y-3379074D02*
X6829575Y-3388598D01*
X6829575Y-3388598D02*
X6820052Y-3398122D01*
X6820052Y-3398122D02*
X6810528Y-3388598D01*
X6810528Y-3388598D02*
X6820052Y-3379074D01*
X6820052Y-3379074D02*
X6820052Y-3398122D01*
M02*
