%TF.GenerationSoftware,KiCad,Pcbnew,7.0.6*%
%TF.CreationDate,2023-09-26T13:21:33-07:00*%
%TF.ProjectId,snes_trigger_tactile,736e6573-5f74-4726-9967-6765725f7461,rev?*%
%TF.SameCoordinates,Original*%
%TF.FileFunction,Copper,L1,Top*%
%TF.FilePolarity,Positive*%
%FSLAX46Y46*%
G04 Gerber Fmt 4.6, Leading zero omitted, Abs format (unit mm)*
G04 Created by KiCad (PCBNEW 7.0.6) date 2023-09-26 13:21:33*
%MOMM*%
%LPD*%
G01*
G04 APERTURE LIST*
G04 Aperture macros list*
%AMRotRect*
0 Rectangle, with rotation*
0 The origin of the aperture is its center*
0 $1 length*
0 $2 width*
0 $3 Rotation angle, in degrees counterclockwise*
0 Add horizontal line*
21,1,$1,$2,0,0,$3*%
G04 Aperture macros list end*
%TA.AperFunction,SMDPad,CuDef*%
%ADD10R,1.300000X1.550000*%
%TD*%
%TA.AperFunction,ComponentPad*%
%ADD11RotRect,1.000000X1.000000X45.000000*%
%TD*%
%TA.AperFunction,ComponentPad*%
%ADD12RotRect,1.000000X1.000000X315.000000*%
%TD*%
%TA.AperFunction,Conductor*%
%ADD13C,0.250000*%
%TD*%
G04 APERTURE END LIST*
D10*
%TO.P,SW1,1,1*%
%TO.N,Net-(J2-Pin_1)*%
X60488822Y-28619932D03*
X60488822Y-20669932D03*
%TO.P,SW1,2,2*%
%TO.N,Net-(J1-Pin_1)*%
X64988822Y-28619932D03*
X64988822Y-20669932D03*
%TD*%
D11*
%TO.P,J1,1,Pin_1*%
%TO.N,Net-(J1-Pin_1)*%
X53797200Y-18592800D03*
%TD*%
D12*
%TO.P,J2,1,Pin_1*%
%TO.N,Net-(J2-Pin_1)*%
X71831200Y-18643600D03*
%TD*%
D13*
%TO.N,Net-(J1-Pin_1)*%
X64988822Y-20669932D02*
X64988822Y-28607600D01*
X54965600Y-19761200D02*
X57708800Y-19761200D01*
X53797200Y-18592800D02*
X54965600Y-19761200D01*
X59131200Y-18338800D02*
X64058800Y-18338800D01*
X57708800Y-19761200D02*
X59131200Y-18338800D01*
X64988822Y-19268822D02*
X64988822Y-20669932D01*
X64058800Y-18338800D02*
X64988822Y-19268822D01*
%TO.N,Net-(J2-Pin_1)*%
X61823600Y-30886400D02*
X68580000Y-30886400D01*
X68580000Y-30886400D02*
X70154800Y-29311600D01*
X60488822Y-20669932D02*
X60488822Y-28619932D01*
X70154800Y-29311600D02*
X70154800Y-20320000D01*
X70154800Y-20320000D02*
X71831200Y-18643600D01*
X60488822Y-29551622D02*
X61823600Y-30886400D01*
X60488822Y-28619932D02*
X60488822Y-29551622D01*
%TD*%
%TA.AperFunction,NonConductor*%
G36*
X71643469Y-16784185D02*
G01*
X71664111Y-16800819D01*
X73591181Y-18727888D01*
X73624666Y-18789211D01*
X73627500Y-18815569D01*
X73627500Y-31739500D01*
X73607815Y-31806539D01*
X73555011Y-31852294D01*
X73503500Y-31863500D01*
X52052963Y-31863500D01*
X51985924Y-31843815D01*
X51940169Y-31791011D01*
X51928963Y-31739500D01*
X51928963Y-29419610D01*
X59588322Y-29419610D01*
X59602854Y-29492667D01*
X59602855Y-29492671D01*
X59602856Y-29492672D01*
X59658221Y-29575533D01*
X59741081Y-29630897D01*
X59741082Y-29630898D01*
X59741086Y-29630899D01*
X59814143Y-29645431D01*
X59814146Y-29645432D01*
X59814148Y-29645432D01*
X60038741Y-29645432D01*
X60105780Y-29665117D01*
X60147795Y-29710414D01*
X60154876Y-29723497D01*
X60178996Y-29772833D01*
X60183564Y-29779231D01*
X60188404Y-29785449D01*
X60228793Y-29822631D01*
X61521449Y-31115286D01*
X61537577Y-31135145D01*
X61543516Y-31144236D01*
X61571532Y-31166041D01*
X61577293Y-31171130D01*
X61580082Y-31173919D01*
X61599083Y-31187485D01*
X61641300Y-31220344D01*
X61642411Y-31221209D01*
X61649304Y-31224939D01*
X61656396Y-31228406D01*
X61656401Y-31228410D01*
X61709002Y-31244070D01*
X61709003Y-31244070D01*
X61760938Y-31261900D01*
X61768672Y-31263190D01*
X61776510Y-31264167D01*
X61776512Y-31264168D01*
X61776513Y-31264167D01*
X61776514Y-31264168D01*
X61831356Y-31261900D01*
X68528196Y-31261900D01*
X68553641Y-31264539D01*
X68557440Y-31265335D01*
X68564268Y-31266767D01*
X68585225Y-31264154D01*
X68599492Y-31262377D01*
X68607168Y-31261900D01*
X68611112Y-31261900D01*
X68611114Y-31261900D01*
X68611116Y-31261899D01*
X68611122Y-31261899D01*
X68626487Y-31259334D01*
X68634140Y-31258057D01*
X68688626Y-31251266D01*
X68688627Y-31251265D01*
X68688629Y-31251265D01*
X68696141Y-31249028D01*
X68703606Y-31246466D01*
X68703606Y-31246465D01*
X68703610Y-31246465D01*
X68751877Y-31220344D01*
X68801211Y-31196226D01*
X68801213Y-31196223D01*
X68807594Y-31191668D01*
X68813819Y-31186822D01*
X68813826Y-31186819D01*
X68851008Y-31146428D01*
X70383689Y-29613746D01*
X70403546Y-29597622D01*
X70412636Y-29591684D01*
X70434451Y-29563654D01*
X70439519Y-29557916D01*
X70442320Y-29555117D01*
X70455888Y-29536113D01*
X70489609Y-29492789D01*
X70489610Y-29492783D01*
X70493343Y-29485887D01*
X70496806Y-29478803D01*
X70496810Y-29478799D01*
X70512473Y-29426187D01*
X70530300Y-29374260D01*
X70530300Y-29374255D01*
X70531595Y-29366495D01*
X70532569Y-29358686D01*
X70530300Y-29303831D01*
X70530300Y-20526898D01*
X70549985Y-20459859D01*
X70566619Y-20439217D01*
X71015750Y-19990086D01*
X71478355Y-19527481D01*
X71539676Y-19493998D01*
X71609368Y-19498982D01*
X71653715Y-19527483D01*
X71671510Y-19545278D01*
X71671513Y-19545280D01*
X71671517Y-19545284D01*
X71708647Y-19570094D01*
X71733458Y-19586673D01*
X71733460Y-19586674D01*
X71831198Y-19606115D01*
X71831200Y-19606115D01*
X71831202Y-19606115D01*
X71928939Y-19586674D01*
X71928941Y-19586673D01*
X71990883Y-19545284D01*
X72732884Y-18803283D01*
X72774273Y-18741341D01*
X72774274Y-18741339D01*
X72793715Y-18643602D01*
X72793715Y-18643597D01*
X72774274Y-18545860D01*
X72774273Y-18545858D01*
X72757694Y-18521047D01*
X72732884Y-18483917D01*
X72732880Y-18483913D01*
X72732877Y-18483909D01*
X71990890Y-17741922D01*
X71990886Y-17741919D01*
X71990883Y-17741916D01*
X71966071Y-17725337D01*
X71928941Y-17700526D01*
X71928939Y-17700525D01*
X71831202Y-17681085D01*
X71831198Y-17681085D01*
X71733460Y-17700525D01*
X71733458Y-17700526D01*
X71671517Y-17741916D01*
X71671509Y-17741922D01*
X70929522Y-18483909D01*
X70929516Y-18483917D01*
X70888126Y-18545858D01*
X70888125Y-18545860D01*
X70868685Y-18643597D01*
X70868685Y-18643602D01*
X70888125Y-18741339D01*
X70888126Y-18741341D01*
X70907464Y-18770281D01*
X70929516Y-18803283D01*
X70929519Y-18803286D01*
X70929522Y-18803290D01*
X70947315Y-18821083D01*
X70980800Y-18882406D01*
X70975816Y-18952098D01*
X70947315Y-18996445D01*
X69925908Y-20017852D01*
X69906054Y-20033976D01*
X69896965Y-20039914D01*
X69896964Y-20039915D01*
X69875163Y-20067923D01*
X69870086Y-20073674D01*
X69867284Y-20076477D01*
X69867274Y-20076488D01*
X69853705Y-20095495D01*
X69819992Y-20138808D01*
X69816247Y-20145729D01*
X69812788Y-20152804D01*
X69797129Y-20205403D01*
X69779300Y-20257338D01*
X69778006Y-20265092D01*
X69777031Y-20272911D01*
X69779300Y-20327755D01*
X69779300Y-29104700D01*
X69759615Y-29171739D01*
X69742981Y-29192381D01*
X68460781Y-30474581D01*
X68399458Y-30508066D01*
X68373100Y-30510900D01*
X62030499Y-30510900D01*
X61963460Y-30491215D01*
X61942818Y-30474581D01*
X61261021Y-29792783D01*
X61227536Y-29731460D01*
X61232520Y-29661768D01*
X61274392Y-29605835D01*
X61279792Y-29602012D01*
X61319423Y-29575533D01*
X61374788Y-29492672D01*
X61389322Y-29419606D01*
X61389322Y-27820258D01*
X61389322Y-27820255D01*
X61389321Y-27820253D01*
X61374789Y-27747196D01*
X61374788Y-27747192D01*
X61374787Y-27747192D01*
X61319423Y-27664331D01*
X61236562Y-27608966D01*
X61236561Y-27608965D01*
X61236557Y-27608964D01*
X61163499Y-27594432D01*
X61163496Y-27594432D01*
X60988322Y-27594432D01*
X60921283Y-27574747D01*
X60875528Y-27521943D01*
X60864322Y-27470432D01*
X60864322Y-21819432D01*
X60884007Y-21752393D01*
X60936811Y-21706638D01*
X60988322Y-21695432D01*
X61163498Y-21695432D01*
X61163499Y-21695431D01*
X61236562Y-21680898D01*
X61319423Y-21625533D01*
X61374788Y-21542672D01*
X61389322Y-21469606D01*
X61389322Y-19870258D01*
X61389322Y-19870255D01*
X61389321Y-19870253D01*
X61374789Y-19797196D01*
X61374788Y-19797192D01*
X61374787Y-19797191D01*
X61319423Y-19714331D01*
X61236562Y-19658966D01*
X61236561Y-19658965D01*
X61236557Y-19658964D01*
X61163499Y-19644432D01*
X61163496Y-19644432D01*
X59814148Y-19644432D01*
X59814145Y-19644432D01*
X59741086Y-19658964D01*
X59741082Y-19658965D01*
X59658221Y-19714331D01*
X59602855Y-19797192D01*
X59602854Y-19797196D01*
X59588322Y-19870253D01*
X59588322Y-21469610D01*
X59602854Y-21542667D01*
X59602855Y-21542671D01*
X59602856Y-21542672D01*
X59658221Y-21625533D01*
X59741082Y-21680898D01*
X59741086Y-21680899D01*
X59814143Y-21695431D01*
X59814146Y-21695432D01*
X59814148Y-21695432D01*
X59989322Y-21695432D01*
X60056361Y-21715117D01*
X60102116Y-21767921D01*
X60113322Y-21819432D01*
X60113322Y-27470432D01*
X60093637Y-27537471D01*
X60040833Y-27583226D01*
X59989322Y-27594432D01*
X59814145Y-27594432D01*
X59741086Y-27608964D01*
X59741082Y-27608965D01*
X59658221Y-27664331D01*
X59602855Y-27747192D01*
X59602854Y-27747196D01*
X59588322Y-27820253D01*
X59588322Y-29419610D01*
X51928963Y-29419610D01*
X51928963Y-18815568D01*
X51948648Y-18748529D01*
X51965277Y-18727892D01*
X52100367Y-18592802D01*
X52834685Y-18592802D01*
X52854125Y-18690539D01*
X52854126Y-18690541D01*
X52871896Y-18717134D01*
X52895516Y-18752483D01*
X52895518Y-18752485D01*
X52895522Y-18752490D01*
X53637510Y-19494478D01*
X53637513Y-19494480D01*
X53637517Y-19494484D01*
X53674647Y-19519294D01*
X53699458Y-19535873D01*
X53699460Y-19535874D01*
X53797198Y-19555315D01*
X53797200Y-19555315D01*
X53797202Y-19555315D01*
X53894939Y-19535874D01*
X53894941Y-19535873D01*
X53907497Y-19527483D01*
X53956883Y-19494484D01*
X53974682Y-19476684D01*
X54036004Y-19443198D01*
X54105696Y-19448181D01*
X54150046Y-19476683D01*
X54663449Y-19990086D01*
X54679577Y-20009945D01*
X54685516Y-20019036D01*
X54713532Y-20040841D01*
X54719293Y-20045930D01*
X54722082Y-20048719D01*
X54741083Y-20062285D01*
X54759331Y-20076488D01*
X54784411Y-20096009D01*
X54791304Y-20099739D01*
X54798396Y-20103206D01*
X54798401Y-20103210D01*
X54851003Y-20118870D01*
X54902938Y-20136700D01*
X54910672Y-20137990D01*
X54918510Y-20138967D01*
X54918512Y-20138968D01*
X54918513Y-20138967D01*
X54918514Y-20138968D01*
X54973356Y-20136700D01*
X57656996Y-20136700D01*
X57682441Y-20139339D01*
X57686240Y-20140135D01*
X57693068Y-20141567D01*
X57714025Y-20138954D01*
X57728292Y-20137177D01*
X57735968Y-20136700D01*
X57739912Y-20136700D01*
X57739914Y-20136700D01*
X57739916Y-20136699D01*
X57739922Y-20136699D01*
X57755287Y-20134134D01*
X57762940Y-20132857D01*
X57817426Y-20126066D01*
X57817427Y-20126065D01*
X57817429Y-20126065D01*
X57824941Y-20123828D01*
X57832406Y-20121266D01*
X57832406Y-20121265D01*
X57832410Y-20121265D01*
X57880677Y-20095144D01*
X57930011Y-20071026D01*
X57930013Y-20071023D01*
X57936394Y-20066468D01*
X57942619Y-20061622D01*
X57942626Y-20061619D01*
X57979808Y-20021228D01*
X58612997Y-19388039D01*
X59250418Y-18750619D01*
X59311741Y-18717134D01*
X59338099Y-18714300D01*
X63851901Y-18714300D01*
X63918940Y-18733985D01*
X63939582Y-18750619D01*
X64577002Y-19388039D01*
X64610487Y-19449362D01*
X64613321Y-19475720D01*
X64613321Y-19520432D01*
X64593636Y-19587471D01*
X64540832Y-19633226D01*
X64489321Y-19644432D01*
X64314145Y-19644432D01*
X64241086Y-19658964D01*
X64241082Y-19658965D01*
X64158221Y-19714331D01*
X64102855Y-19797192D01*
X64102854Y-19797196D01*
X64088322Y-19870253D01*
X64088322Y-21469610D01*
X64102854Y-21542667D01*
X64102855Y-21542671D01*
X64102856Y-21542672D01*
X64158221Y-21625533D01*
X64241082Y-21680898D01*
X64241086Y-21680899D01*
X64314143Y-21695431D01*
X64314146Y-21695432D01*
X64314148Y-21695432D01*
X64489322Y-21695432D01*
X64556361Y-21715117D01*
X64602116Y-21767921D01*
X64613322Y-21819432D01*
X64613322Y-27470432D01*
X64593637Y-27537471D01*
X64540833Y-27583226D01*
X64489322Y-27594432D01*
X64314145Y-27594432D01*
X64241086Y-27608964D01*
X64241082Y-27608965D01*
X64158221Y-27664331D01*
X64102855Y-27747192D01*
X64102854Y-27747196D01*
X64088322Y-27820253D01*
X64088322Y-29419610D01*
X64102854Y-29492667D01*
X64102855Y-29492671D01*
X64102856Y-29492672D01*
X64158221Y-29575533D01*
X64241081Y-29630897D01*
X64241082Y-29630898D01*
X64241086Y-29630899D01*
X64314143Y-29645431D01*
X64314146Y-29645432D01*
X64314148Y-29645432D01*
X65663498Y-29645432D01*
X65663499Y-29645431D01*
X65736562Y-29630898D01*
X65819423Y-29575533D01*
X65874788Y-29492672D01*
X65889322Y-29419606D01*
X65889322Y-27820258D01*
X65889322Y-27820255D01*
X65889321Y-27820253D01*
X65874789Y-27747196D01*
X65874788Y-27747192D01*
X65874787Y-27747191D01*
X65819423Y-27664331D01*
X65736562Y-27608966D01*
X65736561Y-27608965D01*
X65736557Y-27608964D01*
X65663499Y-27594432D01*
X65663496Y-27594432D01*
X65488322Y-27594432D01*
X65421283Y-27574747D01*
X65375528Y-27521943D01*
X65364322Y-27470432D01*
X65364322Y-21819432D01*
X65384007Y-21752393D01*
X65436811Y-21706638D01*
X65488322Y-21695432D01*
X65663498Y-21695432D01*
X65663499Y-21695431D01*
X65736562Y-21680898D01*
X65819423Y-21625533D01*
X65874788Y-21542672D01*
X65889322Y-21469606D01*
X65889322Y-19870258D01*
X65889322Y-19870255D01*
X65889321Y-19870253D01*
X65874789Y-19797196D01*
X65874788Y-19797192D01*
X65874787Y-19797192D01*
X65819423Y-19714331D01*
X65736562Y-19658966D01*
X65736561Y-19658965D01*
X65736557Y-19658964D01*
X65663499Y-19644432D01*
X65663496Y-19644432D01*
X65488322Y-19644432D01*
X65421283Y-19624747D01*
X65375528Y-19571943D01*
X65364322Y-19520433D01*
X65364321Y-19320629D01*
X65366961Y-19295176D01*
X65369189Y-19284554D01*
X65367123Y-19267982D01*
X65364799Y-19249328D01*
X65364322Y-19241652D01*
X65364322Y-19237711D01*
X65364320Y-19237698D01*
X65360479Y-19214681D01*
X65353688Y-19160198D01*
X65353688Y-19160196D01*
X65353686Y-19160192D01*
X65351444Y-19152662D01*
X65348887Y-19145214D01*
X65348887Y-19145212D01*
X65322766Y-19096944D01*
X65298648Y-19047611D01*
X65298646Y-19047609D01*
X65298646Y-19047608D01*
X65294098Y-19041238D01*
X65289242Y-19034998D01*
X65289241Y-19034996D01*
X65248851Y-18997814D01*
X64360949Y-18109911D01*
X64344822Y-18090052D01*
X64338886Y-18080967D01*
X64338883Y-18080963D01*
X64310874Y-18059163D01*
X64305110Y-18054072D01*
X64302315Y-18051277D01*
X64283305Y-18037706D01*
X64239989Y-18003990D01*
X64233074Y-18000248D01*
X64226000Y-17996790D01*
X64173396Y-17981129D01*
X64121458Y-17963299D01*
X64113723Y-17962008D01*
X64105885Y-17961031D01*
X64051044Y-17963300D01*
X59183004Y-17963300D01*
X59157557Y-17960661D01*
X59154913Y-17960106D01*
X59146929Y-17958432D01*
X59111709Y-17962823D01*
X59104032Y-17963300D01*
X59100086Y-17963300D01*
X59082806Y-17966183D01*
X59077046Y-17967144D01*
X59022568Y-17973935D01*
X59015044Y-17976175D01*
X59007592Y-17978734D01*
X58959319Y-18004857D01*
X58909990Y-18028972D01*
X58903598Y-18033535D01*
X58897374Y-18038380D01*
X58880418Y-18056799D01*
X58860203Y-18078758D01*
X58211074Y-18727888D01*
X57589581Y-19349381D01*
X57528258Y-19382866D01*
X57501900Y-19385700D01*
X55172499Y-19385700D01*
X55105460Y-19366015D01*
X55084818Y-19349381D01*
X54681083Y-18945645D01*
X54647598Y-18884322D01*
X54652582Y-18814630D01*
X54681083Y-18770283D01*
X54698884Y-18752483D01*
X54740273Y-18690541D01*
X54740274Y-18690539D01*
X54759715Y-18592802D01*
X54759715Y-18592797D01*
X54740274Y-18495060D01*
X54740273Y-18495058D01*
X54723694Y-18470247D01*
X54698884Y-18433117D01*
X54698880Y-18433113D01*
X54698878Y-18433110D01*
X53956890Y-17691122D01*
X53956886Y-17691119D01*
X53956883Y-17691116D01*
X53932071Y-17674537D01*
X53894941Y-17649726D01*
X53894939Y-17649725D01*
X53797202Y-17630285D01*
X53797198Y-17630285D01*
X53699460Y-17649725D01*
X53699458Y-17649726D01*
X53637517Y-17691116D01*
X53637509Y-17691122D01*
X52895522Y-18433109D01*
X52895516Y-18433117D01*
X52854126Y-18495058D01*
X52854125Y-18495060D01*
X52834685Y-18592797D01*
X52834685Y-18592802D01*
X52100367Y-18592802D01*
X53892351Y-16800819D01*
X53953674Y-16767334D01*
X53980032Y-16764500D01*
X71576430Y-16764500D01*
X71643469Y-16784185D01*
G37*
%TD.AperFunction*%
M02*
